<?xml version="1.0" ?><!DOCTYPE svg  PUBLIC '-//W3C//DTD SVG 1.1//EN'  'http://www.w3.org/Graphics/SVG/1.1/DTD/svg11.dtd'><svg height="78px" id="Layer_1" style="enable-background:new 0 0 78 78;" version="1.1" viewBox="0 0 78 78" width="78px" xml:space="preserve" xmlns="http://www.w3.org/2000/svg" xmlns:xlink="http://www.w3.org/1999/xlink"><path d="M39,0C17.461,0,0,17.461,0,39s17.461,39,39,39s39-17.461,39-39S60.539,0,39,0z M40.221,70.934  c-0.445,0.399-0.907,0.483-1.217,0.483c-0.313,0-0.78-0.085-1.232-0.491c-5.489-4.938-9.529-11.251-11.828-18.24  c8.567-2.189,17.566-2.219,26.146-0.091C49.795,59.624,45.738,65.974,40.221,70.934z M24.474,46.87  c-0.469-2.574-0.724-5.205-0.724-7.87s0.255-5.296,0.723-7.87c4.827,1.231,9.776,1.849,14.727,1.849  c4.82,0,9.639-0.587,14.345-1.754c0.457,2.544,0.706,5.143,0.706,7.775s-0.249,5.231-0.706,7.775  C44.005,44.409,34,44.439,24.474,46.87z M37.78,7.066c0.444-0.399,0.907-0.483,1.216-0.483c0.313,0,0.78,0.086,1.232,0.491  c5.513,4.959,9.566,11.306,11.86,18.331c-8.58,2.127-17.579,2.098-26.146-0.091C28.242,18.322,32.286,12.005,37.78,7.066z   M59.318,29.472c3.287-1.181,6.489-2.663,9.569-4.441C70.88,29.276,72,34.009,72,39s-1.12,9.724-3.112,13.969  c-3.08-1.779-6.282-3.26-9.569-4.441c0.604-3.106,0.932-6.293,0.932-9.528C60.25,35.765,59.923,32.579,59.318,29.472z   M65.854,19.855c-2.59,1.494-5.275,2.759-8.029,3.782c-1.917-5.907-4.934-11.373-8.866-16.099  C55.838,9.721,61.742,14.104,65.854,19.855z M29.042,7.539c-3.901,4.689-6.899,10.107-8.817,15.961  c-2.732-1.037-5.396-2.305-7.963-3.807C16.368,14.022,22.227,9.701,29.042,7.539z M9.193,24.85c3.061,1.793,6.244,3.292,9.513,4.491  C18.085,32.489,17.75,35.72,17.75,39c0,3.28,0.334,6.511,0.956,9.659c-3.269,1.2-6.452,2.698-9.513,4.491  C7.148,48.859,6,44.062,6,39S7.148,29.141,9.193,24.85z M12.262,58.306c2.566-1.501,5.23-2.77,7.963-3.807  c1.918,5.854,4.916,11.273,8.817,15.962C22.227,68.299,16.368,63.978,12.262,58.306z M48.959,70.461  c3.932-4.727,6.948-10.192,8.865-16.099c2.754,1.023,5.439,2.289,8.029,3.782C61.742,63.895,55.838,68.278,48.959,70.461z" style="fill:#333F4F;"/></svg>